<svg width="161" height="44" viewBox="0 0 161 44" fill="none" xmlns="http://www.w3.org/2000/svg">
<path fill-rule="evenodd" clip-rule="evenodd" d="M159.188 14.738C159.188 9.11198 154.314 4.54285 148.312 4.54285H130.188C124.186 4.54285 119.312 9.11198 119.312 14.738V31.73C119.312 37.356 124.186 41.9251 130.188 41.9251H148.312C154.314 41.9251 159.188 37.356 159.188 31.73V14.738ZM155.562 14.738V31.73C155.562 35.4818 152.314 38.5268 148.312 38.5268H130.188C126.186 38.5268 122.938 35.4818 122.938 31.73V14.738C122.938 10.9862 126.186 7.94123 130.188 7.94123H148.312C152.314 7.94123 155.562 10.9862 155.562 14.738Z" fill="#3D9EED"/>
<path fill-rule="evenodd" clip-rule="evenodd" d="M137.177 17.4413C137.381 16.3827 137.816 15.0727 138.558 13.9682C139.237 12.9555 140.167 12.1178 141.342 11.6641C143.06 11.0031 145.485 11.0711 148.662 13.2936C148.662 13.2936 152.059 13.7796 152.164 13.8017C152.489 13.8585 152.79 14.0034 153.029 14.2183C153.267 14.4333 153.434 14.709 153.507 15.0115C153.54 15.1236 153.77 15.7353 153.226 16.4643C153.041 16.7107 151.758 18.1159 150.968 18.8806C150.868 19.6945 150.44 22.8465 149.605 25.2712C148.874 27.3901 147.709 29.4835 145.889 30.9618C142.989 33.3169 138.471 35.0807 134.081 35.1809C131.009 35.2506 128.007 34.5148 125.606 32.7069C125.342 32.5082 125.143 32.2442 125.031 31.9448C124.919 31.6455 124.898 31.3228 124.972 31.0132C125.046 30.7035 125.21 30.4194 125.447 30.1929C125.684 29.9664 125.984 29.8066 126.312 29.7316C126.312 29.7316 129.363 29.0366 131.792 28.1446C129.827 26.7444 128.362 25.1744 127.422 23.3732C126.135 20.9094 125.796 17.9902 126.633 14.4049C127.007 13.2528 128.071 12.6326 128.507 12.6309C128.767 12.6309 129.245 12.6734 129.727 13.1169C129.753 13.1407 132.274 16.6155 137.177 17.4413ZM148.197 16.6784C148.017 16.8194 147.816 17.0267 147.66 17.3462C147.546 17.5773 147.41 18.0666 147.305 18.7616C147.105 20.0666 146.85 22.476 145.955 24.7734C145.427 26.1242 144.68 27.4479 143.515 28.3943C141.565 29.978 138.699 31.2167 135.75 31.6364C134.519 31.8213 133.266 31.8368 132.031 31.6823C132.529 31.5192 133.019 31.3492 133.479 31.1708C134.895 30.6288 136.062 29.9814 136.62 29.4071C136.802 29.219 136.938 28.995 137.015 28.7515C137.093 28.508 137.112 28.2512 137.07 28.0001C137.027 27.7491 136.926 27.51 136.772 27.3006C136.618 27.0912 136.417 26.9168 136.181 26.7903C133.602 25.4004 131.706 23.8473 130.679 21.8779C130.11 20.7904 129.818 19.584 129.802 18.2264C131.658 19.5279 134.13 20.787 138.422 21.0436C139.23 21.0929 139.901 20.578 140.245 19.9188C140.426 19.5721 140.557 19.1609 140.66 18.8228C140.773 18.4626 140.961 16.8177 141.574 15.8577C141.913 15.3275 142.355 14.8365 143.035 14.7226C143.993 14.5612 145.179 15.0404 146.788 16.2298C147.009 16.3931 147.267 16.5055 147.542 16.5578L148.197 16.6784Z" fill="#3D9EED"/>
<g clip-path="url(#clip0_68_2)">
<mask id="mask0_68_2" style="mask-type:luminance" maskUnits="userSpaceOnUse" x="0" y="0" width="44" height="42">
<path d="M44 0.843628H0.5V41.6242H44V0.843628Z" fill="white"/>
</mask>
<g mask="url(#mask0_68_2)">
<path d="M22.25 41.6243C10.2396 41.6243 0.5 32.4935 0.5 21.234C0.5 9.97441 10.2396 0.843628 22.25 0.843628C34.2603 0.843628 44 9.97441 44 21.234C44 32.4935 34.2603 41.6243 22.25 41.6243Z" fill="url(#paint0_linear_68_2)"/>
<path d="M22.25 9.82356C26.2129 9.82356 26.6827 9.83579 28.2487 9.90512C29.6972 9.96629 30.4846 10.1946 31.0066 10.3863C31.6982 10.6392 32.1941 10.9409 32.7118 11.4262C33.2294 11.9115 33.5513 12.3764 33.821 13.0248C34.0255 13.5142 34.2647 14.2523 34.3343 15.6103C34.4039 17.0784 34.4213 17.5188 34.4213 21.234C34.4213 24.9491 34.4083 25.3895 34.3343 26.8576C34.2691 28.2156 34.0255 28.9537 33.821 29.4431C33.5513 30.0915 33.2294 30.5564 32.7118 31.0417C32.1941 31.527 31.6982 31.8288 31.0066 32.0816C30.4846 32.2733 29.6972 32.4976 28.2487 32.5628C26.6827 32.6281 26.2129 32.6444 22.25 32.6444C18.2872 32.6444 17.8174 32.6322 16.2514 32.5628C14.8028 32.5017 14.0155 32.2733 13.4935 32.0816C12.8018 31.8288 12.3059 31.527 11.7883 31.0417C11.2706 30.5564 10.9487 30.0915 10.679 29.4431C10.4746 28.9537 10.2353 28.2156 10.1657 26.8576C10.0961 25.3895 10.0787 24.9491 10.0787 21.234C10.0787 17.5188 10.0918 17.0784 10.1657 15.6103C10.231 14.2523 10.4746 13.5142 10.679 13.0248C10.9487 12.3764 11.2706 11.9115 11.7883 11.4262C12.3059 10.9409 12.8018 10.6392 13.4935 10.3863C14.0155 10.1946 14.8028 9.97037 16.2514 9.90512C17.8174 9.83579 18.2872 9.82356 22.25 9.82356ZM22.25 7.31555C18.2176 7.31555 17.713 7.33186 16.1296 7.40119C14.5505 7.47052 13.4717 7.70297 12.5234 8.0496C11.549 8.40031 10.7182 8.87745 9.89601 9.65228C9.06951 10.4271 8.56491 11.2019 8.18211 12.1195C7.81671 13.0044 7.56441 14.0158 7.49046 15.5002C7.41651 16.9846 7.39911 17.4577 7.39911 21.238C7.39911 25.0184 7.41651 25.4915 7.49046 26.9759C7.56441 28.4562 7.81236 29.4676 8.18211 30.3566C8.56056 31.266 9.06951 32.0449 9.89601 32.8157C10.7225 33.5905 11.549 34.0636 12.5278 34.4224C13.4717 34.765 14.5505 35.0015 16.1339 35.0708C17.7173 35.1402 18.2219 35.1565 22.2544 35.1565C26.2868 35.1565 26.7914 35.1402 28.3748 35.0708C29.9539 35.0015 31.0327 34.7691 31.981 34.4224C32.951 34.0676 33.7819 33.5905 34.604 32.8157C35.4305 32.0408 35.9351 31.266 36.3179 30.3484C36.6833 29.4635 36.9356 28.4521 37.0096 26.9677C37.0835 25.4833 37.1009 25.0103 37.1009 21.2299C37.1009 17.4495 37.0835 16.9765 37.0096 15.4921C36.9356 14.0117 36.6877 13.0004 36.3179 12.1113C35.9395 11.2019 35.4305 10.423 34.604 9.65228C33.7775 8.87745 32.951 8.40439 31.9723 8.04552C31.0283 7.70297 29.9495 7.46644 28.3661 7.39711C26.7871 7.33186 26.2825 7.31555 22.25 7.31555Z" fill="white"/>
<path d="M22.25 14.0851C18.0392 14.0851 14.6245 17.2864 14.6245 21.234C14.6245 25.1815 18.0392 28.3828 22.25 28.3828C26.4608 28.3828 29.8755 25.1815 29.8755 21.234C29.8755 17.2864 26.4608 14.0851 22.25 14.0851ZM22.25 25.8748C19.5182 25.8748 17.2997 23.7991 17.2997 21.234C17.2997 18.6689 19.5182 16.5931 22.25 16.5931C24.9818 16.5931 27.2003 18.6689 27.2003 21.234C27.2003 23.7991 24.9818 25.8748 22.25 25.8748Z" fill="white"/>
<path d="M30.1757 15.4757C31.1607 15.4757 31.9592 14.7271 31.9592 13.8037C31.9592 12.8802 31.1607 12.1317 30.1757 12.1317C29.1907 12.1317 28.3922 12.8802 28.3922 13.8037C28.3922 14.7271 29.1907 15.4757 30.1757 15.4757Z" fill="white"/>
</g>
</g>
<g clip-path="url(#clip1_68_2)">
<mask id="mask1_68_2" style="mask-type:luminance" maskUnits="userSpaceOnUse" x="60" y="1" width="44" height="42">
<path d="M103.5 1.7533H60V42.5339H103.5V1.7533Z" fill="white"/>
</mask>
<g mask="url(#mask1_68_2)">
<path d="M103.5 22.1437C103.5 10.8824 93.7622 1.7533 81.75 1.7533C69.7378 1.7533 60 10.8824 60 22.1437C60 32.3211 67.9537 40.7566 78.3516 42.2863V28.0377H72.8291V22.1437H78.3516V17.6514C78.3516 12.5411 81.5987 9.71827 86.5669 9.71827C88.9465 9.71827 91.4355 10.1165 91.4355 10.1165V15.1345H88.6929C85.9911 15.1345 85.1484 16.7062 85.1484 18.3187V22.1437H91.1807L90.2164 28.0377H85.1484V42.2863C95.5464 40.7566 103.5 32.3211 103.5 22.1437Z" fill="#1877F2"/>
<path d="M90.2164 28.0377L91.1807 22.1437H85.1484V18.3187C85.1484 16.7062 85.991 15.1345 88.6929 15.1345H91.4355V10.1165C91.4355 10.1165 88.9464 9.71826 86.5669 9.71826C81.5987 9.71826 78.3516 12.5411 78.3516 17.6514V22.1437H72.8291V28.0377H78.3516V42.2863C79.4589 42.4492 80.5939 42.534 81.75 42.534C82.9061 42.534 84.0411 42.4492 85.1484 42.2863V28.0377H90.2164Z" fill="white"/>
</g>
</g>
<defs>
<linearGradient id="paint0_linear_68_2" x1="6.87042" y1="35.6521" x2="35.6467" y2="4.95691" gradientUnits="userSpaceOnUse">
<stop stop-color="#FFD521"/>
<stop offset="0.0551048" stop-color="#FFD020"/>
<stop offset="0.1241" stop-color="#FEC01E"/>
<stop offset="0.2004" stop-color="#FCA71B"/>
<stop offset="0.2821" stop-color="#FA8316"/>
<stop offset="0.3681" stop-color="#F85510"/>
<stop offset="0.4563" stop-color="#F51E09"/>
<stop offset="0.5" stop-color="#F30005"/>
<stop offset="0.5035" stop-color="#F20007"/>
<stop offset="0.5966" stop-color="#E1003B"/>
<stop offset="0.6879" stop-color="#D30067"/>
<stop offset="0.7757" stop-color="#C70088"/>
<stop offset="0.8589" stop-color="#BF00A0"/>
<stop offset="0.9357" stop-color="#BB00AF"/>
<stop offset="1" stop-color="#B900B4"/>
</linearGradient>
<clipPath id="clip0_68_2">
<rect width="44" height="42" fill="white"/>
</clipPath>
<clipPath id="clip1_68_2">
<rect width="44" height="42" fill="white" transform="translate(60 1)"/>
</clipPath>
</defs>
</svg>
